<?xml version="1.0" encoding="UTF-8" standalone="no"?>
<svg
   width="980.18744"
   height="165.09473"
   viewBox="0 0 980.18744 165.09472"
   version="1.1"
   id="svg1037"
   sodipodi:docname="all-images.svg"
   inkscape:version="1.3 (0e150ed6c4, 2023-07-21)"
   xml:space="preserve"
   xmlns:inkscape="http://www.inkscape.org/namespaces/inkscape"
   xmlns:sodipodi="http://sodipodi.sourceforge.net/DTD/sodipodi-0.dtd"
   xmlns="http://www.w3.org/2000/svg"
   xmlns:svg="http://www.w3.org/2000/svg"><sodipodi:namedview
     id="namedview1037"
     pagecolor="#ffffff"
     bordercolor="#000000"
     borderopacity="0.25"
     inkscape:showpageshadow="2"
     inkscape:pageopacity="0.0"
     inkscape:pagecheckerboard="0"
     inkscape:deskcolor="#d1d1d1"
     showgrid="false"
     showguides="true"
     inkscape:zoom="1"
     inkscape:cx="656"
     inkscape:cy="5262.5"
     inkscape:window-width="3440"
     inkscape:window-height="1440"
     inkscape:window-x="0"
     inkscape:window-y="0"
     inkscape:window-maximized="1"
     inkscape:current-layer="svg1037" /><defs
     id="defs64" /><rect
     x="0.14173555"
     y="-9.5621741e-05"
     width="979.90399"
     height="165.09477"
     fill="#fafafa"
     fill-opacity="1"
     id="rect2008"
     style="stroke-width:0.967896" /><rect
     style="fill:none;fill-opacity:1;stroke:#2a2a2a;stroke-width:1.89;stroke-linecap:butt;stroke-linejoin:bevel;stroke-dasharray:none;stroke-dashoffset:17.388;stroke-opacity:1;paint-order:stroke fill markers"
     id="rect1958"
     width="114.79245"
     height="36.081955"
     x="834.47095"
     y="67.084862" /><rect
     style="fill:none;fill-opacity:1;stroke:#2a2a2a;stroke-width:1.89;stroke-linecap:butt;stroke-linejoin:bevel;stroke-dasharray:none;stroke-dashoffset:17.388;stroke-opacity:1;paint-order:stroke fill markers"
     id="rect1959"
     width="114.79245"
     height="36.081955"
     x="719.67847"
     y="67.084862" /><rect
     style="fill:none;fill-opacity:1;stroke:#2a2a2a;stroke-width:1.89;stroke-linecap:butt;stroke-linejoin:bevel;stroke-dasharray:none;stroke-dashoffset:17.388;stroke-opacity:1;paint-order:stroke fill markers"
     id="rect1960"
     width="114.79245"
     height="36.081955"
     x="604.88599"
     y="67.084862" /><rect
     style="fill:none;fill-opacity:1;stroke:#2a2a2a;stroke-width:1.89;stroke-linecap:butt;stroke-linejoin:bevel;stroke-dasharray:none;stroke-dashoffset:17.388;stroke-opacity:1;paint-order:stroke fill markers"
     id="rect1961"
     width="114.79245"
     height="36.081955"
     x="490.09351"
     y="67.084862" /><rect
     style="fill:none;fill-opacity:1;stroke:#2a2a2a;stroke-width:1.89;stroke-linecap:butt;stroke-linejoin:bevel;stroke-dasharray:none;stroke-dashoffset:17.388;stroke-opacity:1;paint-order:stroke fill markers"
     id="rect1962"
     width="114.79245"
     height="36.081955"
     x="375.30103"
     y="67.084862" /><rect
     style="fill:none;fill-opacity:1;stroke:#2a2a2a;stroke-width:1.89;stroke-linecap:butt;stroke-linejoin:bevel;stroke-dasharray:none;stroke-dashoffset:17.388;stroke-opacity:1;paint-order:stroke fill markers"
     id="rect1963"
     width="114.79245"
     height="36.081955"
     x="260.50854"
     y="67.084862" /><rect
     style="fill:none;fill-opacity:1;stroke:#2a2a2a;stroke-width:1.89;stroke-linecap:butt;stroke-linejoin:bevel;stroke-dasharray:none;stroke-dashoffset:17.388;stroke-opacity:1;paint-order:stroke fill markers"
     id="rect1964"
     width="114.79245"
     height="36.081955"
     x="145.71606"
     y="67.084862" /><rect
     style="fill:none;fill-opacity:1;stroke:#2a2a2a;stroke-width:1.89;stroke-linecap:butt;stroke-linejoin:bevel;stroke-dasharray:none;stroke-dashoffset:17.388;stroke-opacity:1;paint-order:stroke fill markers"
     id="rect1965"
     width="114.79245"
     height="36.081955"
     x="30.923586"
     y="67.084862" /><path
     id="path2005"
     style="fill:#2a2a2a;fill-opacity:1;stroke-width:1.66667"
     d="m 547.49356,54.671051 c -0.24556,0 -0.2464,0.1601 -0.27149,0.4199 -0.10157,1.7341 -1.01627,2.9962 -2.25976,3.2852 -0.23026,0.065 -0.33325,0.073 -0.86524,0.078 h -48.89648 v 0 h -0.2793 c -1.06585,0 -1.8794,0 -2.84375,1.2637 -0.76133,1.0246 -1.03906,2.7583 -1.03906,3.7832 0,0.2889 1.6e-4,0.4981 0.2793,0.4981 v 0 c 0.25381,0 0.25199,-0.1611 0.27734,-0.4238 0.10156,-1.6551 0.91476,-2.9417 2.20899,-3.2832 0.19716,-0.069 0.29504,-0.075 0.89648,-0.076 h 49.39648 0.002 0.13281 v 0 c 1.06742,-0.017 1.49919,-0.2431 2.2793,-1.0508 0.52671,-0.5451 0.78054,-1.2936 0.98242,-2.0215 0.20188,0.7279 0.45571,1.4764 0.98242,2.0215 0.78011,0.8077 1.20992,1.0341 2.27734,1.0508 v 0 h 49.53321 c 0.59968,9e-4 0.69757,0.01 0.89453,0.076 1.29423,0.3415 2.10743,1.6281 2.20899,3.2832 0.0254,0.2627 0.0255,0.4238 0.27929,0.4238 v 0 c 0.27914,0 0.27735,-0.2092 0.27735,-0.4981 0,-1.0249 -0.27774,-2.7586 -1.03907,-3.7832 -0.89529,-1.1709 -1.66325,-1.2556 -2.62109,-1.2617 -0.009,-10e-5 -0.0182,0 -0.0273,0 -0.0651,-3e-4 -0.12837,0 -0.19532,0 h -0.27929 v 0 h -48.89649 c -0.53199,-0.01 -0.63497,-0.013 -0.86523,-0.078 -1.24349,-0.289 -2.1582,-1.5511 -2.25977,-3.2852 -0.0251,-0.2598 -0.024,-0.4199 -0.26953,-0.4199 z" /><path
     id="path2006"
     style="fill:#2a2a2a;fill-opacity:1;stroke-width:1.66667"
     d="m 662.29217,54.671051 c -0.24556,0 -0.24639,0.1601 -0.27148,0.4199 -0.10157,1.7341 -1.01628,2.9962 -2.25977,3.2852 -0.23026,0.065 -0.33324,0.073 -0.86523,0.078 H 609.9992 v 0 h -0.27929 c -1.06585,0 -1.87941,0 -2.84375,1.2637 -0.76133,1.0246 -1.03907,2.7583 -1.03907,3.7832 0,0.2889 1.6e-4,0.4981 0.2793,0.4981 v 0 c 0.25381,0 0.25199,-0.1611 0.27734,-0.4238 0.10156,-1.6551 0.91476,-2.9417 2.20899,-3.2832 0.19717,-0.069 0.29504,-0.075 0.89648,-0.076 h 49.39649 0.002 0.13281 v 0 c 1.06743,-0.017 1.49919,-0.2431 2.2793,-1.0508 0.52671,-0.5451 0.78054,-1.2936 0.98242,-2.0215 0.20188,0.7279 0.45571,1.4764 0.98242,2.0215 0.78011,0.8077 1.20992,1.0341 2.27735,1.0508 v 0 h 49.5332 c 0.59968,9e-4 0.69757,0.01 0.89453,0.076 1.29423,0.3415 2.10743,1.6281 2.20899,3.2832 0.0254,0.2627 0.0255,0.4238 0.27929,0.4238 v 0 c 0.27914,0 0.27735,-0.2092 0.27735,-0.4981 0,-1.0249 -0.27774,-2.7586 -1.03907,-3.7832 -0.89529,-1.1709 -1.66325,-1.2556 -2.62109,-1.2617 -0.009,-10e-5 -0.0182,0 -0.0273,0 -0.0651,-3e-4 -0.12837,0 -0.19532,0 h -0.27929 v 0 h -48.89649 c -0.53199,-0.01 -0.63497,-0.013 -0.86523,-0.078 -1.24349,-0.289 -2.1582,-1.5511 -2.25977,-3.2852 -0.0251,-0.2598 -0.024,-0.4199 -0.26953,-0.4199 z" /><path
     id="path2007"
     style="fill:#2a2a2a;fill-opacity:1;stroke-width:1.66667"
     d="m 777.08465,54.671051 c -0.24556,0 -0.2464,0.1601 -0.27149,0.4199 -0.10157,1.7341 -1.01627,2.9962 -2.25976,3.2852 -0.23026,0.065 -0.33325,0.073 -0.86524,0.078 h -48.89648 v 0 h -0.2793 c -1.06585,0 -1.8794,0 -2.84375,1.2637 -0.76133,1.0246 -1.03906,2.7583 -1.03906,3.7832 0,0.2889 1.6e-4,0.4981 0.2793,0.4981 v 0 c 0.25381,0 0.25199,-0.1611 0.27734,-0.4238 0.10156,-1.6551 0.91476,-2.9417 2.20898,-3.2832 0.19717,-0.069 0.29505,-0.075 0.89649,-0.076 h 49.39648 0.002 0.13281 v 0 c 1.06742,-0.017 1.49918,-0.2431 2.2793,-1.0508 0.52671,-0.5451 0.78054,-1.2936 0.98242,-2.0215 0.20188,0.7279 0.45571,1.4764 0.98242,2.0215 0.78011,0.8077 1.20992,1.0341 2.27734,1.0508 v 0 h 49.53321 c 0.59968,9e-4 0.69757,0.01 0.89453,0.076 1.29423,0.3415 2.10743,1.6281 2.20899,3.2832 0.0254,0.2627 0.0255,0.4238 0.27929,0.4238 v 0 c 0.27914,0 0.27735,-0.2092 0.27735,-0.4981 0,-1.0249 -0.27774,-2.7586 -1.03907,-3.7832 -0.89529,-1.1709 -1.66325,-1.2556 -2.62109,-1.2617 -0.009,-10e-5 -0.0182,0 -0.0273,0 -0.0651,-3e-4 -0.12837,0 -0.19532,0 h -0.27929 v 0 h -48.89649 c -0.53199,-0.01 -0.63498,-0.013 -0.86524,-0.078 -1.24348,-0.289 -2.15819,-1.5511 -2.25976,-3.2852 -0.0251,-0.2598 -0.024,-0.4199 -0.26953,-0.4199 z" /><path
     id="path2008"
     style="fill:#2a2a2a;fill-opacity:1;stroke-width:1.66667"
     d="m 891.88326,54.671051 c -0.24556,0 -0.24639,0.1601 -0.27148,0.4199 -0.10157,1.7341 -1.01628,2.9962 -2.25977,3.2852 -0.23026,0.065 -0.33324,0.073 -0.86523,0.078 h -48.89649 v 0 H 839.311 c -1.06585,0 -1.87941,0 -2.84375,1.2637 -0.76133,1.0246 -1.03907,2.7583 -1.03907,3.7832 0,0.2889 1.6e-4,0.4981 0.2793,0.4981 v 0 c 0.25381,0 0.25199,-0.1611 0.27734,-0.4238 0.10156,-1.6551 0.91476,-2.9417 2.20899,-3.2832 0.19717,-0.069 0.29504,-0.075 0.89648,-0.076 h 49.39649 0.002 0.13281 v 0 c 1.06743,-0.017 1.49919,-0.2431 2.2793,-1.0508 0.52671,-0.5451 0.78054,-1.2936 0.98242,-2.0215 0.20188,0.7279 0.45571,1.4764 0.98242,2.0215 0.78011,0.8077 1.20992,1.0341 2.27735,1.0508 v 0 h 49.53318 c 0.5997,9e-4 0.6976,0.01 0.8945,0.076 1.2943,0.3415 2.1075,1.6281 2.209,3.2832 0.025,0.2627 0.025,0.4238 0.2793,0.4238 v 0 c 0.2792,0 0.2774,-0.2092 0.2774,-0.4981 0,-1.0249 -0.2778,-2.7586 -1.0391,-3.7832 -0.8953,-1.1709 -1.6632,-1.2556 -2.6211,-1.2617 -0.01,-10e-5 -0.018,0 -0.027,0 -0.065,-3e-4 -0.1284,0 -0.1953,0 h -0.2793 v 0 h -48.89648 c -0.53199,-0.01 -0.63497,-0.013 -0.86523,-0.078 -1.24349,-0.289 -2.1582,-1.5511 -2.25977,-3.2852 -0.0251,-0.2598 -0.024,-0.4199 -0.26953,-0.4199 z" /><path
     id="path1973"
     style="fill:#2a2a2a;fill-opacity:1;stroke-width:1.66667"
     d="m 88.317507,54.671051 c -0.24556,0 -0.246394,0.1601 -0.271484,0.4199 -0.10157,1.7341 -1.016277,2.9962 -2.259766,3.2852 -0.23026,0.065 -0.333245,0.073 -0.865234,0.078 H 36.024538 v 0 h -0.279296 c -1.065849,0 -1.879401,0 -2.84375,1.2637 -0.76133,1.0246 -1.039063,2.7583 -1.039063,3.7832 0,0.2889 1.57e-4,0.4981 0.279297,0.4981 v 0 c 0.25381,0 0.251994,-0.1611 0.277344,-0.4238 0.10156,-1.6551 0.914755,-2.9417 2.208984,-3.2832 0.197169,-0.069 0.295046,-0.075 0.896484,-0.076 h 49.396485 0.002 0.132812 v 0 c 1.067424,-0.017 1.499186,-0.2431 2.279297,-1.0508 0.52671,-0.5451 0.780542,-1.2936 0.982422,-2.0215 0.20188,0.7279 0.455713,1.4764 0.982422,2.0215 0.780111,0.8077 1.20992,1.0341 2.277344,1.0508 v 0 h 49.53321 c 0.59968,9e-4 0.69757,0.01 0.89453,0.076 1.29423,0.3415 2.10743,1.6281 2.20899,3.2832 0.0254,0.2627 0.0255,0.4238 0.27929,0.4238 v 0 c 0.27914,0 0.27735,-0.2092 0.27735,-0.4981 0,-1.0249 -0.27774,-2.7586 -1.03907,-3.7832 -0.89529,-1.1709 -1.66325,-1.2556 -2.62109,-1.2617 -0.009,-10e-5 -0.0182,0 -0.0273,0 -0.0651,-3e-4 -0.12837,0 -0.19532,0 h -0.27929 v 0 H 91.712038 c -0.531989,-0.01 -0.634974,-0.013 -0.865234,-0.078 -1.243489,-0.289 -2.158196,-1.5511 -2.259766,-3.2852 -0.02509,-0.2598 -0.02397,-0.4199 -0.269531,-0.4199 z" /><path
     id="path2002"
     style="fill:#2a2a2a;fill-opacity:1;stroke-width:1.66667"
     d="m 203.11612,54.671051 c -0.24556,0 -0.24639,0.1601 -0.27148,0.4199 -0.10157,1.7341 -1.01628,2.9962 -2.25977,3.2852 -0.23026,0.065 -0.33324,0.073 -0.86523,0.078 h -48.89649 v 0 h -0.27929 c -1.06585,0 -1.87941,0 -2.84375,1.2637 -0.76133,1.0246 -1.03907,2.7583 -1.03907,3.7832 0,0.2889 1.6e-4,0.4981 0.2793,0.4981 v 0 c 0.25381,0 0.25199,-0.1611 0.27734,-0.4238 0.10156,-1.6551 0.91476,-2.9417 2.20899,-3.2832 0.19717,-0.069 0.29504,-0.075 0.89648,-0.076 h 49.39649 0.002 0.13281 v 0 c 1.06743,-0.017 1.49919,-0.2431 2.2793,-1.0508 0.52671,-0.5451 0.78054,-1.2936 0.98242,-2.0215 0.20188,0.7279 0.45571,1.4764 0.98242,2.0215 0.78011,0.8077 1.20992,1.0341 2.27735,1.0508 v 0 h 49.5332 c 0.59968,9e-4 0.69757,0.01 0.89453,0.076 1.29423,0.3415 2.10743,1.6281 2.20899,3.2832 0.0254,0.2627 0.0255,0.4238 0.27929,0.4238 v 0 c 0.27914,0 0.27735,-0.2092 0.27735,-0.4981 0,-1.0249 -0.27774,-2.7586 -1.03907,-3.7832 -0.89529,-1.1709 -1.66325,-1.2556 -2.62109,-1.2617 -0.009,-10e-5 -0.0182,0 -0.0273,0 -0.0651,-3e-4 -0.12837,0 -0.19532,0 h -0.27929 v 0 h -48.89649 c -0.53199,-0.01 -0.63497,-0.013 -0.86523,-0.078 -1.24349,-0.289 -2.1582,-1.5511 -2.25977,-3.2852 -0.0251,-0.2598 -0.024,-0.4199 -0.26953,-0.4199 z" /><path
     id="path2003"
     style="fill:#2a2a2a;fill-opacity:1;stroke-width:1.66667"
     d="m 317.9086,54.671051 c -0.24556,0 -0.2464,0.1601 -0.27149,0.4199 -0.10157,1.7341 -1.01627,2.9962 -2.25976,3.2852 -0.23026,0.065 -0.33325,0.073 -0.86524,0.078 h -48.89648 v 0 h -0.2793 c -1.06585,0 -1.8794,0 -2.84375,1.2637 -0.76133,1.0246 -1.03906,2.7583 -1.03906,3.7832 0,0.2889 1.6e-4,0.4981 0.2793,0.4981 v 0 c 0.25381,0 0.25199,-0.1611 0.27734,-0.4238 0.10156,-1.6551 0.91476,-2.9417 2.20898,-3.2832 0.19717,-0.069 0.29505,-0.075 0.89649,-0.076 h 49.39648 0.002 0.13281 v 0 c 1.06742,-0.017 1.49918,-0.2431 2.2793,-1.0508 0.52671,-0.5451 0.78054,-1.2936 0.98242,-2.0215 0.20188,0.7279 0.45571,1.4764 0.98242,2.0215 0.78011,0.8077 1.20992,1.0341 2.27734,1.0508 v 0 h 49.53321 c 0.59968,9e-4 0.69757,0.01 0.89453,0.076 1.29423,0.3415 2.10743,1.6281 2.20899,3.2832 0.0254,0.2627 0.0255,0.4238 0.27929,0.4238 v 0 c 0.27914,0 0.27735,-0.2092 0.27735,-0.4981 0,-1.0249 -0.27774,-2.7586 -1.03907,-3.7832 -0.89529,-1.1709 -1.66325,-1.2556 -2.62109,-1.2617 -0.009,-10e-5 -0.0182,0 -0.0273,0 -0.0651,-3e-4 -0.12837,0 -0.19532,0 h -0.27929 v 0 h -48.89649 c -0.53199,-0.01 -0.63498,-0.013 -0.86524,-0.078 -1.24348,-0.289 -2.15819,-1.5511 -2.25976,-3.2852 -0.0251,-0.2598 -0.024,-0.4199 -0.26953,-0.4199 z" /><path
     id="path2004"
     style="fill:#2a2a2a;fill-opacity:1;stroke-width:1.66667"
     d="m 432.70721,54.671051 c -0.24556,0 -0.24639,0.1601 -0.27148,0.4199 -0.10157,1.7341 -1.01628,2.9962 -2.25977,3.2852 -0.23026,0.065 -0.33324,0.073 -0.86523,0.078 h -48.89649 v 0 h -0.27929 c -1.06585,0 -1.87941,0 -2.84375,1.2637 -0.76133,1.0246 -1.03907,2.7583 -1.03907,3.7832 0,0.2889 1.6e-4,0.4981 0.2793,0.4981 v 0 c 0.25381,0 0.25199,-0.1611 0.27734,-0.4238 0.10156,-1.6551 0.91476,-2.9417 2.20899,-3.2832 0.19717,-0.069 0.29504,-0.075 0.89648,-0.076 h 49.39649 0.002 0.13281 v 0 c 1.06743,-0.017 1.49919,-0.2431 2.2793,-1.0508 0.52671,-0.5451 0.78054,-1.2936 0.98242,-2.0215 0.20188,0.7279 0.45571,1.4764 0.98242,2.0215 0.78011,0.8077 1.20992,1.0341 2.27735,1.0508 v 0 h 49.5332 c 0.59968,9e-4 0.69757,0.01 0.89453,0.076 1.29423,0.3415 2.10743,1.6281 2.20899,3.2832 0.0254,0.2627 0.0255,0.4238 0.27929,0.4238 v 0 c 0.27914,0 0.27735,-0.2092 0.27735,-0.4981 0,-1.0249 -0.27774,-2.7586 -1.03907,-3.7832 -0.89529,-1.1709 -1.66325,-1.2556 -2.62109,-1.2617 -0.009,-10e-5 -0.0182,0 -0.0273,0 -0.0651,-3e-4 -0.12837,0 -0.19532,0 h -0.27929 v 0 h -48.89649 c -0.53199,-0.01 -0.63497,-0.013 -0.86523,-0.078 -1.24349,-0.289 -2.1582,-1.5511 -2.25977,-3.2852 -0.0251,-0.2598 -0.024,-0.4199 -0.26953,-0.4199 z" /><path
     d="m 71.196059,34.164451 q 2.478662,0 3.743993,0.6933 1.265331,0.6934 1.265331,2.444 0,1.0574 -0.502666,1.7854 -0.485332,0.728 -1.403997,0.884 v 0.087 q 0.623999,0.1214 1.126664,0.4334 0.502666,0.312 0.797332,0.9013 0.294666,0.5893 0.294666,1.56 0,1.6813 -1.213331,2.6346 -1.213331,0.9534 -3.327993,0.9534 h -4.627991 v -12.376 z m 0.294666,4.9053 q 1.143998,0 1.57733,-0.364 0.450666,-0.364 0.450666,-1.0573 0,-0.7107 -0.519999,-1.0227 -0.519999,-0.312 -1.646663,-0.312 h -1.386664 v 2.756 z m -1.52533,2.08 v 3.224 h 1.715997 q 1.178664,0 1.646663,-0.4506 0.467999,-0.468 0.467999,-1.2307 0,-0.6933 -0.485332,-1.1093 -0.467999,-0.4334 -1.715997,-0.4334 z m 11.405327,5.3907 H 78.78806 v -13.1733 h 2.582662 z m 4.003997,-13.1733 q 0.571999,0 0.987998,0.2773 0.415999,0.26 0.415999,0.988 0,0.7107 -0.415999,0.988 -0.415999,0.2773 -0.987998,0.2773 -0.589332,0 -1.005332,-0.2773 -0.398666,-0.2773 -0.398666,-0.988 0,-0.728 0.398666,-0.988 0.416,-0.2773 1.005332,-0.2773 z m 1.282664,3.7093 v 9.464 h -2.582662 v -9.464 z m 8.077324,-0.1733 q 1.525331,0 2.443995,0.832 0.918665,0.8146 0.918665,2.6346 v 6.1707 h -2.582661 v -5.5293 q 0,-1.0227 -0.364,-1.5254 -0.363999,-0.52 -1.161331,-0.52 -1.178664,0 -1.611997,0.8147 -0.433332,0.7973 -0.433332,2.3053 v 4.4547 h -2.582662 v -9.464 h 1.975996 l 0.346666,1.2133 h 0.138667 q 0.450666,-0.728 1.230664,-1.0573 0.797332,-0.3293 1.68133,-0.3293 z m 8.597313,2.3573 q 0,0.5373 -0.052,1.0747 -0.0347,0.52 -0.0867,1.0573 h 0.0347 q 0.26,-0.364 0.53733,-0.728 0.27733,-0.3813 0.58933,-0.7107 l 2.652,-2.8773 h 2.91199 l -3.76133,4.108 3.98666,5.356 h -2.98132 l -2.72133,-3.8307 -1.10933,0.884 v 2.9467 h -2.58266 v -13.1733 h 2.58266 z"
     id="text2009"
     style="font-weight:bold;font-size:17.3333px;line-height:0;font-family:Sans;-inkscape-font-specification:'Sans Bold';letter-spacing:0px;fill:#2a2a2a;stroke-width:1.89;stroke-linejoin:bevel;paint-order:stroke fill markers"
     aria-label="Blink" /><path
     d="m 203.17447,34.164451 q 2.53066,0 3.72666,0.9187 1.21333,0.9186 1.21333,2.7906 0,0.8494 -0.32933,1.4907 -0.312,0.624 -0.84933,1.0747 -0.52,0.4333 -1.12667,0.7106 l 3.64,5.3907 h -2.912 l -2.94666,-4.7493 h -1.404 v 4.7493 h -2.61733 v -12.376 z m -0.19067,2.1493 h -0.79733 v 3.3454 h 0.84933 q 1.3,0 1.85467,-0.4334 0.572,-0.4333 0.572,-1.2826 0,-0.884 -0.60667,-1.248 -0.58933,-0.3814 -1.872,-0.3814 z"
     id="text2010"
     style="font-weight:bold;font-size:17.3333px;line-height:0;font-family:Sans;-inkscape-font-specification:'Sans Bold';letter-spacing:0px;fill:#2a2a2a;stroke-width:1.89;stroke-linejoin:bevel;paint-order:stroke fill markers"
     aria-label="R" /><path
     d="m 318.04541,39.589751 h 4.90533 v 6.4133 q -0.97067,0.3294 -2.028,0.52 -1.04,0.1907 -2.37466,0.1907 -2.77333,0 -4.26399,-1.6293 -1.49067,-1.6293 -1.49067,-4.7493 0,-1.9414 0.74534,-3.3627 0.76266,-1.4213 2.20133,-2.2013 1.43866,-0.78 3.51866,-0.78 0.98799,0 1.94133,0.208 0.95333,0.208 1.73333,0.5546 l -0.86667,2.0974 q -0.572,-0.2947 -1.3,-0.4854 -0.728,-0.1906 -1.52533,-0.1906 -1.144,0 -1.99333,0.52 -0.832,0.52 -1.29999,1.4733 -0.45067,0.936 -0.45067,2.2187 0,1.2133 0.32933,2.1493 0.32934,0.936 1.04,1.4733 0.71067,0.52 1.85466,0.52 0.55467,0 0.936,-0.052 0.39867,-0.052 0.728,-0.1213 v -2.5827 h -2.34 z"
     id="text2011"
     style="font-weight:bold;font-size:17.3333px;line-height:0;font-family:Sans;-inkscape-font-specification:'Sans Bold';letter-spacing:0px;fill:#2a2a2a;stroke-width:1.89;stroke-linejoin:bevel;paint-order:stroke fill markers"
     aria-label="G" /><path
     d="m 432.08002,34.164451 q 2.47867,0 3.744,0.6933 1.26533,0.6934 1.26533,2.444 0,1.0574 -0.50267,1.7854 -0.48533,0.728 -1.40399,0.884 v 0.087 q 0.62399,0.1214 1.12666,0.4334 0.50267,0.312 0.79733,0.9013 0.29467,0.5893 0.29467,1.56 0,1.6813 -1.21333,2.6346 -1.21333,0.9534 -3.328,0.9534 h -4.62799 v -12.376 z m 0.29467,4.9053 q 1.144,0 1.57733,-0.364 0.45067,-0.364 0.45067,-1.0573 0,-0.7107 -0.52,-1.0227 -0.52,-0.312 -1.64667,-0.312 h -1.38666 v 2.756 z m -1.52533,2.08 v 3.224 h 1.716 q 1.17866,0 1.64666,-0.4506 0.468,-0.468 0.468,-1.2307 0,-0.6933 -0.48533,-1.1093 -0.468,-0.4334 -1.716,-0.4334 z"
     id="text2012"
     style="font-weight:bold;font-size:17.3333px;line-height:0;font-family:Sans;-inkscape-font-specification:'Sans Bold';letter-spacing:0px;fill:#2a2a2a;stroke-width:1.89;stroke-linejoin:bevel;paint-order:stroke fill markers"
     aria-label="B" /><path
     d="m 513.15211,46.540451 h -5.63333 v -1.4907 l 1.508,-0.6933 v -8.008 l -1.508,-0.6933 v -1.4907 h 5.63333 v 1.4907 l -1.508,0.6933 v 8.008 l 1.508,0.6933 z m 7.27998,-9.6373 q 1.52533,0 2.444,0.832 0.91866,0.8146 0.91866,2.6346 v 6.1707 h -2.58266 v -5.5293 q 0,-1.0227 -0.364,-1.5254 -0.364,-0.52 -1.16133,-0.52 -1.17866,0 -1.612,0.8147 -0.43333,0.7973 -0.43333,2.3053 v 4.4547 h -2.58266 v -9.464 h 1.97599 l 0.34667,1.2133 h 0.13867 q 0.45066,-0.728 1.23066,-1.0573 0.79733,-0.3293 1.68133,-0.3293 z m 10.00131,7.748 q 0.43333,0 0.832,-0.087 0.39866,-0.087 0.79733,-0.208 v 1.924 q -0.416,0.1733 -1.04,0.2946 -0.60667,0.1387 -1.33466,0.1387 -0.84934,0 -1.52533,-0.2773 -0.65867,-0.2774 -1.05734,-0.9534 -0.38133,-0.6933 -0.38133,-1.9066 v -4.5587 h -1.23066 v -1.092 l 1.42133,-0.8666 0.74533,-1.9934 h 1.64666 v 2.0107 h 2.652 v 1.9413 h -2.652 v 4.5587 q 0,0.5373 0.312,0.8147 0.312,0.26 0.81467,0.26 z m 7.43598,-7.748 q 1.95867,0 3.10266,1.1266 1.144,1.1094 1.144,3.172 v 1.248 h -6.10132 q 0.0347,1.092 0.64133,1.716 0.624,0.624 1.716,0.624 0.91866,0 1.664,-0.1733 0.74533,-0.1907 1.54266,-0.572 v 1.9933 q -0.69333,0.3467 -1.47333,0.5027 -0.76267,0.1733 -1.85466,0.1733 -1.42133,0 -2.51333,-0.52 -1.092,-0.5373 -1.716,-1.612 -0.624,-1.0746 -0.624,-2.704 0,-1.664 0.55467,-2.756 0.572,-1.1093 1.57733,-1.664 1.00533,-0.5546 2.33999,-0.5546 z m 0.0173,1.8373 q -0.74534,0 -1.248,0.4853 -0.48533,0.4854 -0.572,1.508 h 3.62266 q -0.0173,-0.8666 -0.45067,-1.4213 -0.43333,-0.572 -1.35199,-0.572 z m 11.69997,-1.8373 q 1.52533,0 2.44399,0.832 0.91867,0.8146 0.91867,2.6346 v 6.1707 h -2.58267 v -5.5293 q 0,-1.0227 -0.36399,-1.5254 -0.364,-0.52 -1.16134,-0.52 -1.17866,0 -1.61199,0.8147 -0.43333,0.7973 -0.43333,2.3053 v 4.4547 h -2.58267 v -9.464 h 1.976 l 0.34667,1.2133 h 0.13866 q 0.45067,-0.728 1.23067,-1.0573 0.79733,-0.3293 1.68133,-0.3293 z m 12.61863,6.8293 q 0,1.4386 -1.02266,2.2186 -1.00534,0.7627 -3.016,0.7627 -0.988,0 -1.69866,-0.1387 -0.71067,-0.1213 -1.42133,-0.416 v -2.1319 q 0.76266,0.3466 1.64666,0.572 0.884,0.2253 1.56,0.2253 0.76266,0 1.07466,-0.2253 0.32934,-0.2254 0.32934,-0.5894 0,-0.2426 -0.13867,-0.4333 -0.12133,-0.1907 -0.55467,-0.4333 -0.43333,-0.2427 -1.35199,-0.624 -0.884,-0.3814 -1.456,-0.7454 -0.572,-0.3813 -0.84933,-0.9013 -0.27734,-0.5373 -0.27734,-1.3347 0,-1.3173 1.02267,-1.976 1.02266,-0.6586 2.72133,-0.6586 0.884,0 1.68133,0.1733 0.79733,0.1733 1.64666,0.572 l -0.78,1.8547 q -0.69333,-0.2947 -1.31733,-0.4854 -0.624,-0.208 -1.26533,-0.208 -1.144,0 -1.144,0.624 0,0.2254 0.13867,0.416 0.156,0.1734 0.572,0.3814 0.43333,0.208 1.26533,0.5546 0.81466,0.3294 1.404,0.6934 0.58933,0.3466 0.90133,0.884 0.32933,0.52 0.32933,1.3693 z m 3.31066,-10.3653 q 0.572,0 0.988,0.2773 0.416,0.26 0.416,0.988 0,0.7107 -0.416,0.988 -0.416,0.2773 -0.988,0.2773 -0.58933,0 -1.00533,-0.2773 -0.39867,-0.2773 -0.39867,-0.988 0,-0.728 0.39867,-0.988 0.416,-0.2773 1.00533,-0.2773 z m 1.28266,3.7093 v 9.464 h -2.58266 v -9.464 z m 6.69066,7.5747 q 0.43333,0 0.832,-0.087 0.39867,-0.087 0.79733,-0.208 v 1.924 q -0.416,0.1733 -1.04,0.2946 -0.60666,0.1387 -1.33466,0.1387 -0.84933,0 -1.52533,-0.2773 -0.65867,-0.2774 -1.05733,-0.9534 -0.38133,-0.6933 -0.38133,-1.9066 v -4.5587 h -1.23067 v -1.092 l 1.42133,-0.8666 0.74533,-1.9934 h 1.64667 v 2.0107 h 2.65199 v 1.9413 h -2.65199 v 4.5587 q 0,0.5373 0.312,0.8147 0.312,0.26 0.81466,0.26 z m 2.18399,-7.5747 h 2.82533 l 1.78533,5.3213 q 0.13867,0.3814 0.208,0.7974 0.0693,0.3986 0.104,0.8493 h 0.052 q 0.052,-0.4507 0.13867,-0.8493 0.104,-0.416 0.22533,-0.7974 l 1.75066,-5.3213 h 2.77333 l -4.00399,10.6773 q -0.53733,1.4733 -1.57733,2.2013 -1.02267,0.7454 -2.37466,0.7454 -0.43334,0 -0.76267,-0.052 -0.312,-0.035 -0.55466,-0.087 v -2.0453 q 0.19066,0.035 0.45066,0.069 0.27733,0.035 0.572,0.035 0.81467,0 1.28267,-0.5027 0.48533,-0.4853 0.71066,-1.1787 l 0.156,-0.468 z"
     id="text2015"
     style="font-weight:bold;font-size:17.3333px;line-height:0;font-family:Sans;-inkscape-font-specification:'Sans Bold';letter-spacing:0px;fill:#2a2a2a;stroke-width:1.89;stroke-linejoin:bevel;paint-order:stroke fill markers"
     aria-label="Intensity" /><path
     d="m 662.35051,34.164451 q 2.53066,0 3.72666,0.9187 1.21333,0.9186 1.21333,2.7906 0,0.8494 -0.32933,1.4907 -0.312,0.624 -0.84933,1.0747 -0.52,0.4333 -1.12667,0.7106 l 3.64,5.3907 h -2.912 l -2.94666,-4.7493 h -1.404 v 4.7493 h -2.61732 v -12.376 z m -0.19066,2.1493 h -0.79734 v 3.3454 h 0.84934 q 1.29999,0 1.85466,-0.4334 0.572,-0.4333 0.572,-1.2826 0,-0.884 -0.60667,-1.248 -0.58933,-0.3814 -1.87199,-0.3814 z"
     id="text2016"
     style="font-weight:bold;font-size:17.3333px;line-height:0;font-family:Sans;-inkscape-font-specification:'Sans Bold';letter-spacing:0px;fill:#2a2a2a;stroke-width:1.89;stroke-linejoin:bevel;paint-order:stroke fill markers"
     aria-label="R" /><path
     d="m 777.22144,39.589751 h 4.90532 v 6.4133 q -0.97066,0.3294 -2.02799,0.52 -1.04,0.1907 -2.37466,0.1907 -2.77333,0 -4.264,-1.6293 -1.49066,-1.6293 -1.49066,-4.7493 0,-1.9414 0.74533,-3.3627 0.76267,-1.4213 2.20133,-2.2013 1.43867,-0.78 3.51866,-0.78 0.988,0 1.94133,0.208 0.95333,0.208 1.73333,0.5546 l -0.86666,2.0974 q -0.572,-0.2947 -1.3,-0.4854 -0.728,-0.1906 -1.52533,-0.1906 -1.144,0 -1.99333,0.52 -0.832,0.52 -1.3,1.4733 -0.45066,0.936 -0.45066,2.2187 0,1.2133 0.32933,2.1493 0.32933,0.936 1.04,1.4733 0.71066,0.52 1.85466,0.52 0.55466,0 0.936,-0.052 0.39866,-0.052 0.728,-0.1213 v -2.5827 h -2.34 z"
     id="text2017"
     style="font-weight:bold;font-size:17.3333px;line-height:0;font-family:Sans;-inkscape-font-specification:'Sans Bold';letter-spacing:0px;fill:#2a2a2a;stroke-width:1.89;stroke-linejoin:bevel;paint-order:stroke fill markers"
     aria-label="G" /><path
     d="m 891.25608,34.164451 q 2.47866,0 3.74399,0.6933 1.26533,0.6934 1.26533,2.444 0,1.0574 -0.50266,1.7854 -0.48533,0.728 -1.404,0.884 v 0.087 q 0.624,0.1214 1.12667,0.4334 0.50266,0.312 0.79733,0.9013 0.29466,0.5893 0.29466,1.56 0,1.6813 -1.21333,2.6346 -1.21333,0.9534 -3.32799,0.9534 h -4.62799 v -12.376 z m 0.29467,4.9053 q 1.14399,0 1.57733,-0.364 0.45066,-0.364 0.45066,-1.0573 0,-0.7107 -0.52,-1.0227 -0.52,-0.312 -1.64666,-0.312 h -1.38666 v 2.756 z m -1.52533,2.08 v 3.224 h 1.71599 q 1.17867,0 1.64667,-0.4506 0.468,-0.468 0.468,-1.2307 0,-0.6933 -0.48534,-1.1093 -0.468,-0.4334 -1.71599,-0.4334 z"
     id="text2018"
     style="font-weight:bold;font-size:17.3333px;line-height:0;font-family:Sans;-inkscape-font-specification:'Sans Bold';letter-spacing:0px;fill:#2a2a2a;stroke-width:1.89;stroke-linejoin:bevel;paint-order:stroke fill markers"
     aria-label="B" /><path
     id="path2021"
     style="fill:#2a2a2a;fill-opacity:1;stroke-width:1.66667"
     d="m 32.141726,106.67105 v 0 c -0.27914,0 -0.279297,0.2111 -0.279297,0.5 0,1.0249 0.277733,2.7586 1.039063,3.7832 0.964349,1.2612 1.777901,1.2617 2.84375,1.2617 h 0.279296 v 0 H 257.11243 v 0.01 c 0.53199,0.01 0.63693,0.013 0.86719,0.078 1.24349,0.289 2.15624,1.5511 2.25781,3.2852 0.0251,0.2598 0.0259,0.4179 0.27149,0.4179 0.24556,0 0.24639,-0.1581 0.27148,-0.4179 0.10157,-1.7341 1.01433,-2.9962 2.25781,-3.2852 0.23026,-0.065 0.33325,-0.073 0.86524,-0.078 v -0.01 h 221.08984 v 0 h 0.27735 c 1.06585,0 1.8794,-5e-4 2.84375,-1.2617 0.76133,-1.0246 1.04101,-2.7583 1.04101,-3.7832 0,-0.2889 -1.6e-4,-0.5 -0.27929,-0.5 v 0 c -0.25381,0 -0.25395,0.1611 -0.2793,0.4238 -0.10156,1.6551 -0.91476,2.9417 -2.20899,3.2832 -0.21806,0.076 -0.29422,0.078 -1.09375,0.078 v 0 H 263.58509 v 0.012 c -0.93628,0.041 -1.35984,0.287 -2.09375,1.0469 -0.52671,0.5452 -0.78054,1.2936 -0.98242,2.0215 -0.20188,-0.7279 -0.45571,-1.4763 -0.98242,-2.0215 -0.73341,-0.7594 -1.15883,-1.0062 -2.09375,-1.0469 v -0.012 h -0.002 -221.707033 v 0 c -0.801703,0 -0.877431,0 -1.095703,-0.078 -1.294229,-0.3415 -2.107424,-1.6281 -2.208984,-3.2832 -0.02531,-0.2627 -0.02349,-0.4238 -0.277304,-0.4238 z" /><path
     id="path2034"
     style="fill:#2a2a2a;fill-opacity:1;stroke-width:1.66667"
     d="m 491.31778,106.66905 v 0 c -0.27914,0 -0.2793,0.2111 -0.2793,0.5 0,1.0249 0.27774,2.7586 1.03907,3.7832 0.96434,1.2612 1.7779,1.2617 2.84375,1.2617 h 0.27929 v 0 h 221.08789 v 0.01 c 0.53199,0.01 0.63693,0.013 0.86719,0.078 1.24349,0.289 2.15624,1.5511 2.25781,3.2852 0.0251,0.2598 0.0259,0.4179 0.27149,0.4179 0.24556,0 0.24639,-0.1581 0.27148,-0.4179 0.10157,-1.7341 1.01433,-2.9962 2.25781,-3.2852 0.23026,-0.065 0.33325,-0.073 0.86524,-0.078 v -0.01 h 221.08984 v 0 h 0.27735 c 1.06585,0 1.8794,-5e-4 2.84375,-1.2617 0.76133,-1.0246 1.04101,-2.7583 1.04101,-3.7832 0,-0.2889 -1.6e-4,-0.5 -0.27929,-0.5 v 0 c -0.25381,0 -0.25395,0.1611 -0.2793,0.4238 -0.10156,1.6551 -0.91476,2.9417 -2.20899,3.2832 -0.21806,0.076 -0.29422,0.078 -1.09375,0.078 v 0 H 722.76114 v 0.012 c -0.93628,0.041 -1.35984,0.287 -2.09375,1.0469 -0.52671,0.5452 -0.78054,1.2936 -0.98242,2.0215 -0.20188,-0.7279 -0.45571,-1.4763 -0.98242,-2.0215 -0.73341,-0.7594 -1.15883,-1.0062 -2.09375,-1.0469 v -0.012 h -0.002 -221.70703 v 0 c -0.8017,0 -0.87743,0 -1.0957,-0.078 -1.29423,-0.3415 -2.10743,-1.6281 -2.20899,-3.2832 -0.0253,-0.2627 -0.0235,-0.4238 -0.2773,-0.4238 z" /><path
     d="m 674.4581,139.12925 h -2.58267 v -12.3759 h 7.08932 v 2.1493 h -4.50665 v 3.1893 h 4.19465 v 2.1494 h -4.19465 z m 15.32263,-4.7493 q 0,2.3574 -1.248,3.64 -1.23066,1.2827 -3.36266,1.2827 -1.31733,0 -2.35733,-0.572 -1.02266,-0.572 -1.61199,-1.664 -0.58934,-1.1093 -0.58934,-2.6867 0,-2.3573 1.23067,-3.6226 1.23066,-1.2654 3.37999,-1.2654 1.33467,0 2.35733,0.572 1.02266,0.572 1.612,1.664 0.58933,1.0747 0.58933,2.652 z m -6.53465,0 q 0,1.404 0.45066,2.132 0.468,0.7107 1.508,0.7107 1.02266,0 1.47333,-0.7107 0.468,-0.728 0.468,-2.132 0,-1.404 -0.468,-2.0973 -0.45067,-0.7107 -1.49067,-0.7107 -1.02266,0 -1.49066,0.7107 -0.45066,0.6933 -0.45066,2.0973 z m 13.95329,-4.888 q 0.19067,0 0.45067,0.017 0.26,0.017 0.416,0.052 l -0.19067,2.4266 q -0.12133,-0.035 -0.364,-0.052 -0.22533,-0.035 -0.39866,-0.035 -0.65867,0 -1.26534,0.2426 -0.60666,0.2254 -0.98799,0.7454 -0.364,0.52 -0.364,1.4213 v 4.8186 h -2.58266 v -9.4639 h 1.95866 l 0.38133,1.5946 h 0.12133 q 0.416,-0.728 1.144,-1.248 0.728,-0.52 1.68133,-0.52 z m 6.13599,0 q 1.95866,0 3.10266,1.1267 1.144,1.1093 1.144,3.172 v 1.248 h -6.10132 q 0.0347,1.092 0.64133,1.716 0.624,0.624 1.716,0.624 0.91866,0 1.66399,-0.1733 0.74533,-0.1907 1.54267,-0.572 v 1.9933 q -0.69334,0.3466 -1.47333,0.5026 -0.76267,0.1734 -1.85467,0.1734 -1.42133,0 -2.51333,-0.52 -1.09199,-0.5374 -1.71599,-1.612 -0.624,-1.0747 -0.624,-2.704 0,-1.664 0.55466,-2.756 0.572,-1.1093 1.57733,-1.664 1.00534,-0.5547 2.34,-0.5547 z m 0.0173,1.8374 q -0.74533,0 -1.24799,0.4853 -0.48534,0.4853 -0.572,1.508 h 3.62266 q -0.0173,-0.8667 -0.45067,-1.4213 -0.43333,-0.572 -1.352,-0.572 z m 9.39464,-1.8374 q 1.75067,0 2.73867,1.3867 h 0.0693 l 0.208,-1.2133 h 2.18399 v 9.4813 q 0,2.028 -1.19599,3.0853 -1.196,1.0573 -3.536,1.0573 -1.00533,0 -1.87199,-0.1213 -0.84933,-0.1213 -1.664,-0.4333 v -2.0627 q 1.75066,0.728 3.69199,0.728 1.99333,0 1.99333,-2.1493 v -0.1907 q 0,-0.2947 0.0173,-0.6067 0.0347,-0.312 0.052,-0.5546 h -0.0693 q -0.48533,0.7453 -1.16133,1.0746 -0.676,0.3294 -1.52533,0.3294 -1.68133,0 -2.63466,-1.2827 -0.936,-1.3 -0.936,-3.6053 0,-2.3227 0.97067,-3.6227 0.97066,-1.3 2.66932,-1.3 z m 0.81467,2.0974 q -1.82,0 -1.82,2.86 0,2.8253 1.85467,2.8253 0.98799,0 1.45599,-0.5547 0.48534,-0.572 0.48534,-1.976 v -0.312 q 0,-1.5253 -0.468,-2.184 -0.468,-0.6586 -1.508,-0.6586 z m 12.37597,-2.0974 q 0.19066,0 0.45066,0.017 0.26,0.017 0.416,0.052 l -0.19067,2.4266 q -0.12133,-0.035 -0.36399,-0.052 -0.22534,-0.035 -0.39867,-0.035 -0.65867,0 -1.26533,0.2426 -0.60667,0.2254 -0.988,0.7454 -0.364,0.52 -0.364,1.4213 v 4.8186 h -2.58266 v -9.4639 h 1.95866 l 0.38134,1.5946 h 0.12133 q 0.416,-0.728 1.144,-1.248 0.72799,-0.52 1.68133,-0.52 z m 10.83331,4.888 q 0,2.3574 -1.248,3.64 -1.23066,1.2827 -3.36266,1.2827 -1.31733,0 -2.35733,-0.572 -1.02266,-0.572 -1.612,-1.664 -0.58933,-1.1093 -0.58933,-2.6867 0,-2.3573 1.23067,-3.6226 1.23066,-1.2654 3.37999,-1.2654 1.33466,0 2.35733,0.572 1.02266,0.572 1.612,1.664 0.58933,1.0747 0.58933,2.652 z m -6.53466,0 q 0,1.404 0.45067,2.132 0.468,0.7107 1.508,0.7107 1.02266,0 1.47333,-0.7107 0.468,-0.728 0.468,-2.132 0,-1.404 -0.468,-2.0973 -0.45067,-0.7107 -1.49067,-0.7107 -1.02266,0 -1.49066,0.7107 -0.45067,0.6933 -0.45067,2.0973 z m 17.35063,-4.7146 v 9.4639 h -1.976 l -0.34666,-1.2133 h -0.13867 q -0.45066,0.728 -1.248,1.0573 -0.77999,0.3294 -1.66399,0.3294 -1.52533,0 -2.444,-0.8147 -0.91866,-0.832 -0.91866,-2.652 v -6.1706 h 2.58266 v 5.5293 q 0,1.0053 0.364,1.5253 0.364,0.52 1.16133,0.52 1.17866,0 1.612,-0.7973 0.43333,-0.8147 0.43333,-2.3227 v -4.4546 z m 8.07731,-0.1734 q 1.52533,0 2.44399,0.832 0.91867,0.8147 0.91867,2.6347 v 6.1706 h -2.58266 v -5.5293 q 0,-1.0226 -0.364,-1.5253 -0.364,-0.52 -1.16133,-0.52 -1.17867,0 -1.612,0.8147 -0.43333,0.7973 -0.43333,2.3053 v 4.4546 h -2.58266 v -9.4639 h 1.97599 l 0.34667,1.2133 h 0.13867 q 0.45066,-0.728 1.23066,-1.0573 0.79733,-0.3294 1.68133,-0.3294 z m 9.01331,9.8107 q -1.57733,0 -2.58266,-1.2307 -0.988,-1.248 -0.988,-3.6573 0,-2.4267 1.00533,-3.6747 1.00533,-1.248 2.63466,-1.248 1.02267,0 1.68133,0.3987 0.65867,0.3987 1.04,0.988 h 0.0867 q -0.052,-0.2773 -0.12134,-0.7973 -0.0693,-0.5374 -0.0693,-1.092 v -3.0334 h 2.58266 v 13.1733 h -1.976 l -0.50266,-1.2306 h -0.104 q -0.38133,0.5893 -1.02267,1.0053 -0.64133,0.3987 -1.66399,0.3987 z m 0.90133,-2.0627 q 1.07466,0 1.508,-0.624 0.43333,-0.6413 0.45066,-1.9066 v -0.2774 q 0,-1.3866 -0.43333,-2.1146 -0.416,-0.728 -1.56,-0.728 -0.84933,0 -1.33466,0.7453 -0.48533,0.728 -0.48533,2.1147 0,1.3866 0.48533,2.0973 0.48533,0.6933 1.36933,0.6933 z"
     id="text2035"
     style="font-weight:bold;font-size:17.3333px;line-height:0;font-family:Sans;-inkscape-font-specification:'Sans Bold';letter-spacing:0px;fill:#2a2a2a;stroke-width:1.89;stroke-linejoin:bevel;paint-order:stroke fill markers"
     aria-label="Foreground&#10;" /><path
     d="m 213.72343,126.75335 q 2.47866,0 3.74399,0.6933 1.26533,0.6933 1.26533,2.444 0,1.0573 -0.50267,1.7853 -0.48533,0.728 -1.40399,0.884 v 0.087 q 0.624,0.1213 1.12666,0.4333 0.50267,0.312 0.79733,0.9014 0.29467,0.5893 0.29467,1.56 0,1.6813 -1.21333,2.6346 -1.21333,0.9533 -3.32799,0.9533 h -4.628 v -12.3759 z m 0.29466,4.9053 q 1.144,0 1.57733,-0.364 0.45067,-0.364 0.45067,-1.0573 0,-0.7107 -0.52,-1.0227 -0.52,-0.312 -1.64666,-0.312 h -1.38667 v 2.756 z m -1.52533,2.08 v 3.224 h 1.716 q 1.17866,0 1.64666,-0.4507 0.468,-0.468 0.468,-1.2306 0,-0.6934 -0.48533,-1.1094 -0.468,-0.4333 -1.716,-0.4333 z m 12.70533,-4.264 q 1.90666,0 2.91199,0.832 1.02267,0.8147 1.02267,2.5133 v 6.3093 h -1.80267 l -0.50266,-1.2826 h -0.0693 q -0.60666,0.7626 -1.28266,1.1093 -0.676,0.3467 -1.85466,0.3467 -1.26533,0 -2.09733,-0.728 -0.832,-0.7453 -0.832,-2.2707 0,-1.508 1.05733,-2.2186 1.05733,-0.728 3.17199,-0.7974 l 1.64667,-0.052 v -0.416 q 0,-0.7453 -0.39867,-1.092 -0.38133,-0.3466 -1.07466,-0.3466 -0.69333,0 -1.352,0.208 -0.65867,0.1906 -1.31733,0.4853 l -0.84933,-1.7507 q 0.76266,-0.3986 1.68133,-0.624 0.936,-0.2253 1.94133,-0.2253 z m 0.364,5.304 q -1.248,0.035 -1.73333,0.4507 -0.48534,0.416 -0.48534,1.092 0,0.5893 0.34667,0.8493 0.34667,0.2427 0.90133,0.2427 0.832,0 1.404,-0.4854 0.572,-0.5026 0.572,-1.404 v -0.78 z m 10.07064,4.524 q -2.11466,0 -3.27599,-1.1614 -1.144,-1.1786 -1.144,-3.6919 0,-1.7334 0.58934,-2.8254 0.58933,-1.092 1.62933,-1.612 1.05733,-0.52 2.42666,-0.52 0.97066,0 1.68133,0.1907 0.728,0.1907 1.26533,0.4507 l -0.76267,1.9933 q -0.60666,-0.2427 -1.14399,-0.3987 -0.52,-0.156 -1.04,-0.156 -2.01067,0 -2.01067,2.86 0,1.4214 0.52,2.0974 0.53734,0.676 1.49067,0.676 0.81466,0 1.43866,-0.208 0.624,-0.2254 1.21333,-0.6067 v 2.2013 q -0.58933,0.3813 -1.248,0.5373 -0.64133,0.1734 -1.62933,0.1734 z m 7.64399,-7.4533 q 0,0.5373 -0.052,1.0746 -0.0347,0.52 -0.0867,1.0574 h 0.0347 q 0.26,-0.364 0.53733,-0.728 0.27733,-0.3814 0.58933,-0.7107 l 2.652,-2.8773 h 2.91199 l -3.76132,4.108 3.98666,5.3559 h -2.98133 l -2.72133,-3.8306 -1.10933,0.884 v 2.9466 h -2.58266 v -13.1733 h 2.58266 z m 11.23199,-2.3574 q 1.75067,0 2.73866,1.3867 h 0.0693 l 0.208,-1.2133 h 2.18399 v 9.4813 q 0,2.028 -1.19599,3.0853 -1.196,1.0573 -3.536,1.0573 -1.00533,0 -1.87199,-0.1213 -0.84934,-0.1213 -1.664,-0.4333 v -2.0627 q 1.75066,0.728 3.69199,0.728 1.99333,0 1.99333,-2.1493 v -0.1907 q 0,-0.2947 0.0173,-0.6067 0.0347,-0.312 0.052,-0.5546 h -0.0693 q -0.48533,0.7453 -1.16133,1.0746 -0.676,0.3294 -1.52533,0.3294 -1.68133,0 -2.63466,-1.2827 -0.936,-1.3 -0.936,-3.6053 0,-2.3227 0.97067,-3.6227 0.97066,-1.3 2.66932,-1.3 z m 0.81467,2.0974 q -1.82,0 -1.82,2.86 0,2.8253 1.85467,2.8253 0.98799,0 1.45599,-0.5547 0.48533,-0.572 0.48533,-1.976 v -0.312 q 0,-1.5253 -0.46799,-2.184 -0.468,-0.6586 -1.508,-0.6586 z m 12.37596,-2.0974 q 0.19067,0 0.45067,0.017 0.26,0.017 0.416,0.052 l -0.19067,2.4266 q -0.12133,-0.035 -0.364,-0.052 -0.22533,-0.035 -0.39866,-0.035 -0.65867,0 -1.26534,0.2426 -0.60666,0.2254 -0.98799,0.7454 -0.364,0.52 -0.364,1.4213 v 4.8186 h -2.58266 v -9.4639 h 1.95866 l 0.38133,1.5946 h 0.12133 q 0.416,-0.728 1.144,-1.248 0.728,-0.52 1.68133,-0.52 z m 10.83331,4.888 q 0,2.3574 -1.24799,3.64 -1.23067,1.2827 -3.36266,1.2827 -1.31733,0 -2.35733,-0.572 -1.02267,-0.572 -1.612,-1.664 -0.58933,-1.1093 -0.58933,-2.6867 0,-2.3573 1.23066,-3.6226 1.23067,-1.2654 3.38,-1.2654 1.33466,0 2.35732,0.572 1.02267,0.572 1.612,1.664 0.58933,1.0747 0.58933,2.652 z m -6.53465,0 q 0,1.404 0.45067,2.132 0.46799,0.7107 1.50799,0.7107 1.02267,0 1.47333,-0.7107 0.468,-0.728 0.468,-2.132 0,-1.404 -0.468,-2.0973 -0.45066,-0.7107 -1.49066,-0.7107 -1.02267,0 -1.49066,0.7107 -0.45067,0.6933 -0.45067,2.0973 z m 17.35063,-4.7146 v 9.4639 h -1.976 l -0.34667,-1.2133 h -0.13866 q -0.45067,0.728 -1.248,1.0573 -0.78,0.3294 -1.664,0.3294 -1.52533,0 -2.44399,-0.8147 -0.91867,-0.832 -0.91867,-2.652 v -6.1706 h 2.58266 v 5.5293 q 0,1.0053 0.364,1.5253 0.364,0.52 1.16133,0.52 1.17867,0 1.612,-0.7973 0.43333,-0.8147 0.43333,-2.3227 v -4.4546 z m 8.07731,-0.1734 q 1.52533,0 2.44399,0.832 0.91867,0.8147 0.91867,2.6347 v 6.1706 h -2.58267 v -5.5293 q 0,-1.0226 -0.364,-1.5253 -0.36399,-0.52 -1.16133,-0.52 -1.17866,0 -1.61199,0.8147 -0.43334,0.7973 -0.43334,2.3053 v 4.4546 h -2.58266 v -9.4639 h 1.976 l 0.34666,1.2133 h 0.13867 q 0.45067,-0.728 1.23067,-1.0573 0.79733,-0.3294 1.68133,-0.3294 z m 9.0133,9.8107 q -1.57733,0 -2.58266,-1.2307 -0.988,-1.248 -0.988,-3.6573 0,-2.4267 1.00533,-3.6747 1.00534,-1.248 2.63467,-1.248 1.02266,0 1.68133,0.3987 0.65866,0.3987 1.03999,0.988 h 0.0867 q -0.052,-0.2773 -0.12133,-0.7973 -0.0693,-0.5374 -0.0693,-1.092 v -3.0334 h 2.58267 v 13.1733 h -1.976 l -0.50267,-1.2306 h -0.104 q -0.38133,0.5893 -1.02266,1.0053 -0.64133,0.3987 -1.664,0.3987 z m 0.90133,-2.0627 q 1.07467,0 1.508,-0.624 0.43333,-0.6413 0.45067,-1.9066 v -0.2774 q 0,-1.3866 -0.43333,-2.1146 -0.416,-0.728 -1.56,-0.728 -0.84933,0 -1.33467,0.7453 -0.48533,0.728 -0.48533,2.1147 0,1.3866 0.48533,2.0973 0.48534,0.6933 1.36933,0.6933 z"
     id="text2037"
     style="font-weight:bold;font-size:17.3333px;line-height:0;font-family:Sans;-inkscape-font-specification:'Sans Bold';letter-spacing:0px;fill:#2a2a2a;stroke-width:1.89;stroke-linejoin:bevel;paint-order:stroke fill markers"
     aria-label="Background&#10;" /><rect
     style="fill:none;stroke:#000000;stroke-width:0.365615;stroke-linejoin:bevel;stroke-dasharray:none;stroke-opacity:1;paint-order:stroke fill markers"
     id="rect2808"
     width="979.82184"
     height="164.72954"
     x="0.18280751"
     y="0.18252157" /></svg>
